<svg width="17" height="20" viewBox="0 0 17 20" fill="none" xmlns="http://www.w3.org/2000/svg">
<path d="M16.8084 12.6157L15.0385 10.7488V8.27574C15.0364 6.56669 14.4337 4.91913 13.3467 3.65166C12.2598 2.38418 10.7659 1.58683 9.15385 1.41377V0H7.84615V1.41377C6.23414 1.58683 4.74023 2.38418 3.65328 3.65166C2.56633 4.91913 1.96357 6.56669 1.96154 8.27574V10.7488L0.191577 12.6157C0.0689485 12.745 3.70321e-05 12.9204 0 13.1033V15.1722C0 15.3551 0.0688871 15.5305 0.191507 15.6598C0.314127 15.7892 0.480435 15.8618 0.653846 15.8618H5.23077V16.3977C5.21655 17.2726 5.50892 18.1223 6.05186 18.7839C6.5948 19.4455 7.35012 19.8725 8.17308 19.9831C8.62762 20.0307 9.08656 19.9774 9.52038 19.8266C9.95421 19.6758 10.3533 19.431 10.692 19.1077C11.0308 18.7845 11.3016 18.3901 11.4871 17.9498C11.6726 17.5096 11.7687 17.0333 11.7692 16.5515V15.8618H16.3462C16.5196 15.8618 16.6859 15.7892 16.8085 15.6598C16.9311 15.5305 17 15.3551 17 15.1722V13.1033C17 12.9204 16.9311 12.745 16.8084 12.6157ZM10.4615 16.5515C10.4615 17.1002 10.2549 17.6264 9.88702 18.0144C9.51916 18.4024 9.02023 18.6204 8.5 18.6204C7.97977 18.6204 7.48084 18.4024 7.11298 18.0144C6.74512 17.6264 6.53846 17.1002 6.53846 16.5515V15.8618H10.4615V16.5515ZM15.6923 14.4825H1.30769V13.3888L3.07765 11.5219C3.20028 11.3926 3.26919 11.2172 3.26923 11.0343V8.27574C3.26923 6.8125 3.82033 5.40919 4.80129 4.37452C5.78225 3.33985 7.11271 2.75858 8.5 2.75858C9.88729 2.75858 11.2178 3.33985 12.1987 4.37452C13.1797 5.40919 13.7308 6.8125 13.7308 8.27574V11.0343C13.7308 11.2172 13.7997 11.3926 13.9223 11.5219L15.6923 13.3888V14.4825Z" fill="#F8F8F8"/>
</svg>
