<svg width="17" height="15" viewBox="0 0 17 15" fill="none" xmlns="http://www.w3.org/2000/svg">
<path d="M1.7 15C1.2325 15 0.832433 14.8166 0.4998 14.4497C0.167167 14.0828 0.000566667 13.6412 0 13.125V1.875C0 1.35937 0.1666 0.918125 0.4998 0.55125C0.833 0.184375 1.23307 0.000625 1.7 0H15.3C15.7675 0 16.1678 0.18375 16.501 0.55125C16.8342 0.91875 17.0006 1.36 17 1.875V13.125C17 13.6406 16.8337 14.0822 16.501 14.4497C16.1684 14.8172 15.7681 15.0006 15.3 15H1.7ZM8.5 8.4375L1.7 3.75V13.125H15.3V3.75L8.5 8.4375ZM8.5 6.5625L15.3 1.875H1.7L8.5 6.5625ZM1.7 3.75V1.875V13.125V3.75Z" fill="#F8F8F8"/>
</svg>
